<svg width="523" height="467" viewBox="0 0 523 467" fill="none" xmlns="http://www.w3.org/2000/svg">
<!-- <rect width="523" height="467" fill="#D9D9D9"/> -->
<rect x="179.98" y="41" width="242" height="40" rx="20" transform="rotate(55 179.98 41)" fill="#1E1E1E"/>
<path d="M302.484 219.684C311.532 226.019 313.731 238.49 307.395 247.538L191.533 413.007C185.197 422.055 172.727 424.254 163.678 417.919V417.919C154.63 411.583 152.431 399.112 158.767 390.064L274.629 224.595C280.965 215.547 293.436 213.348 302.484 219.684V219.684Z" fill="#1E1E1E"/>
<path d="M207.189 220.06C216.237 226.396 218.436 238.867 212.1 247.915L96.2376 413.384C89.9021 422.432 77.4311 424.631 68.383 418.295V418.295C59.3349 411.96 57.136 399.489 63.4715 390.441L179.334 224.972C185.67 215.924 198.14 213.725 207.189 220.06V220.06Z" fill="#1E1E1E"/>
<path id="logo-cursor" d="M305 397.589C305 386.543 313.954 377.589 325 377.589H444C455.046 377.589 464 386.543 464 397.589V397.589C464 408.635 455.046 417.589 444 417.589H325C313.954 417.589 305 408.635 305 397.589V397.589Z" fill="#1E1E1E"/>
</svg>
