<svg width="405" height="374" viewBox="0 0 405 374" fill="none" xmlns="http://www.w3.org/2000/svg">
<rect x="120.98" y="-7" width="242" height="40" rx="20" transform="rotate(55 120.98 -7)" fill="white"/>
<path d="M243.484 171.684C252.532 178.019 254.731 190.49 248.395 199.538L132.533 365.007C126.197 374.055 113.727 376.254 104.678 369.919V369.919C95.6303 363.583 93.4314 351.112 99.7669 342.064L215.629 176.595C221.965 167.547 234.436 165.348 243.484 171.684V171.684Z" fill="white"/>
<path d="M148.189 172.06C157.237 178.396 159.436 190.867 153.1 199.915L37.2376 365.384C30.9021 374.432 18.4311 376.631 9.38304 370.295V370.295C0.334936 363.96 -1.86402 351.489 4.47153 342.441L120.334 176.972C126.67 167.924 139.14 165.725 148.189 172.06V172.06Z" fill="white"/>
<path d="M246 349.589C246 338.543 254.954 329.589 266 329.589H385C396.046 329.589 405 338.543 405 349.589V349.589C405 360.635 396.046 369.589 385 369.589H266C254.954 369.589 246 360.635 246 349.589V349.589Z" fill="white"/>
</svg>
